<mxfile host="app.diagrams.net" modified="2022-08-04T14:48:19.415Z" agent="5.0 (Windows NT 10.0; Win64; x64) AppleWebKit/537.36 (KHTML, like Gecko) Chrome/103.0.0.0 Safari/537.36" etag="eeM686NHR7VOQ_q2dtdI" version="20.2.3" type="github">
  <diagram id="R2lEEEUBdFMjLlhIrx00" name="Page-1">
    <mxGraphModel dx="2272" dy="1805" grid="1" gridSize="10" guides="0" tooltips="1" connect="1" arrows="1" fold="1" page="1" pageScale="1" pageWidth="850" pageHeight="1100" background="#ffffff" math="0" shadow="0" extFonts="Permanent Marker^https://fonts.googleapis.com/css?family=Permanent+Marker">
      <root>
        <mxCell id="0" />
        <mxCell id="1" parent="0" />
        <mxCell id="oBTViP26-SowRDlwIlP9-1" value="TRANSACTION" style="rounded=0;whiteSpace=wrap;html=1;glass=0;fillColor=#d5e8d4;strokeColor=#82b366;" parent="1" vertex="1">
          <mxGeometry x="150" y="310" width="95" height="40" as="geometry" />
        </mxCell>
        <mxCell id="oBTViP26-SowRDlwIlP9-5" value="transaction_id" style="ellipse;whiteSpace=wrap;html=1;fontSize=16;" parent="1" vertex="1">
          <mxGeometry x="-140" y="230" width="120" height="80" as="geometry" />
        </mxCell>
        <mxCell id="oBTViP26-SowRDlwIlP9-6" value="" style="endArrow=none;html=1;fontSize=12;startSize=14;endSize=14;exitX=0;exitY=0.5;exitDx=0;exitDy=0;" parent="1" source="oBTViP26-SowRDlwIlP9-1" target="oBTViP26-SowRDlwIlP9-5" edge="1">
          <mxGeometry width="50" height="50" relative="1" as="geometry">
            <mxPoint x="140" y="330" as="sourcePoint" />
            <mxPoint x="610" y="390" as="targetPoint" />
          </mxGeometry>
        </mxCell>
        <mxCell id="oBTViP26-SowRDlwIlP9-7" value="transaction_description" style="ellipse;whiteSpace=wrap;html=1;fontSize=16;" parent="1" vertex="1">
          <mxGeometry x="-140" y="320" width="170" height="80" as="geometry" />
        </mxCell>
        <mxCell id="oBTViP26-SowRDlwIlP9-8" value="" style="endArrow=none;html=1;fontSize=12;startSize=14;endSize=14;exitX=1.017;exitY=0.588;exitDx=0;exitDy=0;exitPerimeter=0;entryX=0;entryY=0.75;entryDx=0;entryDy=0;" parent="1" source="oBTViP26-SowRDlwIlP9-7" target="oBTViP26-SowRDlwIlP9-1" edge="1">
          <mxGeometry width="50" height="50" relative="1" as="geometry">
            <mxPoint x="240" y="410" as="sourcePoint" />
            <mxPoint x="170" y="320" as="targetPoint" />
          </mxGeometry>
        </mxCell>
        <mxCell id="oBTViP26-SowRDlwIlP9-9" value="transaction_amount" style="ellipse;whiteSpace=wrap;html=1;fontSize=16;" parent="1" vertex="1">
          <mxGeometry x="-90" y="400" width="150" height="80" as="geometry" />
        </mxCell>
        <mxCell id="oBTViP26-SowRDlwIlP9-10" value="" style="endArrow=none;html=1;fontSize=12;startSize=14;endSize=14;entryX=0;entryY=1;entryDx=0;entryDy=0;" parent="1" source="oBTViP26-SowRDlwIlP9-9" target="oBTViP26-SowRDlwIlP9-1" edge="1">
          <mxGeometry width="50" height="50" relative="1" as="geometry">
            <mxPoint x="200" y="460" as="sourcePoint" />
            <mxPoint x="250" y="410" as="targetPoint" />
          </mxGeometry>
        </mxCell>
        <mxCell id="oBTViP26-SowRDlwIlP9-11" value="type_deposit&lt;br&gt;-withdrawal" style="ellipse;whiteSpace=wrap;html=1;fontSize=16;" parent="1" vertex="1">
          <mxGeometry x="40" y="460" width="120" height="80" as="geometry" />
        </mxCell>
        <mxCell id="oBTViP26-SowRDlwIlP9-12" value="" style="endArrow=none;html=1;fontSize=12;startSize=14;endSize=14;entryX=0.25;entryY=1;entryDx=0;entryDy=0;" parent="1" source="oBTViP26-SowRDlwIlP9-11" target="oBTViP26-SowRDlwIlP9-1" edge="1">
          <mxGeometry width="50" height="50" relative="1" as="geometry">
            <mxPoint x="310" y="480" as="sourcePoint" />
            <mxPoint x="150" y="330" as="targetPoint" />
          </mxGeometry>
        </mxCell>
        <mxCell id="oBTViP26-SowRDlwIlP9-13" value="transaction_date" style="ellipse;whiteSpace=wrap;html=1;fontSize=16;" parent="1" vertex="1">
          <mxGeometry x="170" y="470" width="120" height="80" as="geometry" />
        </mxCell>
        <mxCell id="oBTViP26-SowRDlwIlP9-14" value="" style="endArrow=none;html=1;fontSize=12;startSize=14;endSize=14;entryX=0.5;entryY=1;entryDx=0;entryDy=0;" parent="1" source="oBTViP26-SowRDlwIlP9-13" target="oBTViP26-SowRDlwIlP9-1" edge="1">
          <mxGeometry width="50" height="50" relative="1" as="geometry">
            <mxPoint x="560" y="440" as="sourcePoint" />
            <mxPoint x="420" y="390" as="targetPoint" />
            <Array as="points" />
          </mxGeometry>
        </mxCell>
        <mxCell id="oBTViP26-SowRDlwIlP9-15" value="channel" style="ellipse;whiteSpace=wrap;html=1;fontSize=16;" parent="1" vertex="1">
          <mxGeometry x="300" y="450" width="120" height="80" as="geometry" />
        </mxCell>
        <mxCell id="oBTViP26-SowRDlwIlP9-16" value="" style="endArrow=none;html=1;fontSize=12;startSize=14;endSize=14;entryX=0.75;entryY=1;entryDx=0;entryDy=0;" parent="1" source="oBTViP26-SowRDlwIlP9-15" target="oBTViP26-SowRDlwIlP9-1" edge="1">
          <mxGeometry width="50" height="50" relative="1" as="geometry">
            <mxPoint x="500" y="440" as="sourcePoint" />
            <mxPoint x="550" y="390" as="targetPoint" />
          </mxGeometry>
        </mxCell>
        <mxCell id="oBTViP26-SowRDlwIlP9-80" value="" style="endArrow=none;html=1;fontSize=12;startSize=14;endSize=14;exitX=1;exitY=1;exitDx=0;exitDy=0;" parent="1" source="oBTViP26-SowRDlwIlP9-1" target="oBTViP26-SowRDlwIlP9-81" edge="1">
          <mxGeometry width="50" height="50" relative="1" as="geometry">
            <mxPoint x="320" y="450" as="sourcePoint" />
            <mxPoint x="350" y="480" as="targetPoint" />
          </mxGeometry>
        </mxCell>
        <mxCell id="oBTViP26-SowRDlwIlP9-81" value="merchant_name" style="ellipse;whiteSpace=wrap;html=1;fontSize=16;" parent="1" vertex="1">
          <mxGeometry x="420" y="400" width="140" height="80" as="geometry" />
        </mxCell>
        <mxCell id="oBTViP26-SowRDlwIlP9-100" value="product_id" style="ellipse;whiteSpace=wrap;html=1;fontSize=16;" parent="1" vertex="1">
          <mxGeometry x="350" y="-70" width="90" height="80" as="geometry" />
        </mxCell>
        <mxCell id="oBTViP26-SowRDlwIlP9-101" value="" style="endArrow=none;html=1;fontSize=12;startSize=14;endSize=14;" parent="1" edge="1">
          <mxGeometry width="50" height="50" relative="1" as="geometry">
            <mxPoint x="680" y="410" as="sourcePoint" />
            <mxPoint x="680" y="400" as="targetPoint" />
          </mxGeometry>
        </mxCell>
        <mxCell id="oBTViP26-SowRDlwIlP9-103" value="" style="endArrow=none;html=1;fontSize=12;startSize=14;endSize=14;exitX=1;exitY=0;exitDx=0;exitDy=0;endFill=0;startArrow=ERzeroToMany;startFill=0;" parent="1" source="oBTViP26-SowRDlwIlP9-1" edge="1">
          <mxGeometry width="50" height="50" relative="1" as="geometry">
            <mxPoint x="240" y="320" as="sourcePoint" />
            <mxPoint x="310" y="250" as="targetPoint" />
          </mxGeometry>
        </mxCell>
        <mxCell id="oBTViP26-SowRDlwIlP9-104" value="done for&amp;nbsp;" style="rhombus;whiteSpace=wrap;html=1;fontSize=16;fillColor=#dae8fc;strokeColor=#6c8ebf;" parent="1" vertex="1">
          <mxGeometry x="280" y="190" width="100" height="80" as="geometry" />
        </mxCell>
        <mxCell id="oBTViP26-SowRDlwIlP9-105" value="" style="endArrow=none;html=1;fontSize=12;startSize=14;endSize=14;exitX=0.5;exitY=0;exitDx=0;exitDy=0;" parent="1" source="oBTViP26-SowRDlwIlP9-106" edge="1">
          <mxGeometry width="50" height="50" relative="1" as="geometry">
            <mxPoint x="370" y="20" as="sourcePoint" />
            <mxPoint x="395" y="10" as="targetPoint" />
          </mxGeometry>
        </mxCell>
        <mxCell id="oBTViP26-SowRDlwIlP9-106" value="PRODUCT" style="rounded=0;whiteSpace=wrap;html=1;fontSize=16;fillColor=#d5e8d4;strokeColor=#82b366;" parent="1" vertex="1">
          <mxGeometry x="340" y="60" width="110" height="60" as="geometry" />
        </mxCell>
        <mxCell id="oBTViP26-SowRDlwIlP9-108" value="" style="endArrow=none;html=1;fontSize=12;startSize=14;endSize=14;endFill=0;startArrow=ERzeroToMany;startFill=0;" parent="1" edge="1">
          <mxGeometry width="50" height="50" relative="1" as="geometry">
            <mxPoint x="160" y="310" as="sourcePoint" />
            <mxPoint x="131.76470588235316" y="250" as="targetPoint" />
          </mxGeometry>
        </mxCell>
        <mxCell id="oBTViP26-SowRDlwIlP9-111" value="" style="endArrow=ERone;html=1;fontSize=12;startSize=14;endSize=14;exitX=1;exitY=0.5;exitDx=0;exitDy=0;endFill=0;" parent="1" edge="1">
          <mxGeometry width="50" height="50" relative="1" as="geometry">
            <mxPoint x="350" y="210" as="sourcePoint" />
            <mxPoint x="390" y="120" as="targetPoint" />
          </mxGeometry>
        </mxCell>
        <mxCell id="oBTViP26-SowRDlwIlP9-117" value="done by" style="rhombus;whiteSpace=wrap;html=1;fontSize=16;fillColor=#dae8fc;strokeColor=#6c8ebf;" parent="1" vertex="1">
          <mxGeometry x="70" y="190" width="80" height="80" as="geometry" />
        </mxCell>
        <mxCell id="oBTViP26-SowRDlwIlP9-118" value="" style="endArrow=ERone;html=1;fontSize=12;startSize=14;endSize=14;entryX=0.583;entryY=1;entryDx=0;entryDy=0;entryPerimeter=0;startArrow=none;startFill=0;endFill=0;" parent="1" source="oBTViP26-SowRDlwIlP9-117" target="oBTViP26-SowRDlwIlP9-119" edge="1">
          <mxGeometry width="50" height="50" relative="1" as="geometry">
            <mxPoint x="80" y="180" as="sourcePoint" />
            <mxPoint x="70" y="130" as="targetPoint" />
          </mxGeometry>
        </mxCell>
        <mxCell id="oBTViP26-SowRDlwIlP9-119" value="CUSTOMER" style="rounded=0;whiteSpace=wrap;html=1;fontSize=16;fillColor=#d5e8d4;strokeColor=#82b366;" parent="1" vertex="1">
          <mxGeometry x="10" y="70" width="120" height="60" as="geometry" />
        </mxCell>
        <mxCell id="oBTViP26-SowRDlwIlP9-120" value="" style="endArrow=none;html=1;fontSize=12;startSize=14;endSize=14;exitX=0.5;exitY=0;exitDx=0;exitDy=0;" parent="1" source="oBTViP26-SowRDlwIlP9-119" target="oBTViP26-SowRDlwIlP9-121" edge="1">
          <mxGeometry width="50" height="50" relative="1" as="geometry">
            <mxPoint x="50" y="30" as="sourcePoint" />
            <mxPoint x="70" as="targetPoint" />
          </mxGeometry>
        </mxCell>
        <mxCell id="oBTViP26-SowRDlwIlP9-121" value="customer_id" style="ellipse;whiteSpace=wrap;html=1;fontSize=16;" parent="1" vertex="1">
          <mxGeometry y="-70" width="120" height="80" as="geometry" />
        </mxCell>
      </root>
    </mxGraphModel>
  </diagram>
</mxfile>
